<svg xmlns="http://www.w3.org/2000/svg" viewBox="0 0 700 700" width="700" height="700">
  <defs>
    <linearGradient id="g13" x1="0" y1="0" x2="1" y2="1">
      <stop offset="0" stop-color="#89AACC"/><stop offset="1" stop-color="#4E85BF"/>
    </linearGradient>
    <radialGradient id="glow13" cx="0.5" cy="0.4" r="0.7">
      <stop offset="0" stop-color="#89AACC" stop-opacity="0.28"/>
      <stop offset="1" stop-color="#89AACC" stop-opacity="0"/>
    </radialGradient>
  </defs>
  <rect width="700" height="700" fill="#0a0a0a"/>
  <rect width="700" height="700" fill="url(#glow13)"/>
  <path d="M 0 12 Q 10 12 20 12 Q 30 16.668662606544252 40 12 Q 50 20.82337032010772 60 12 Q 70 24.006747541241914 80 12 Q 90 25.86834866338016 100 12 Q 110 26.20323726550967 120 12 Q 130 24.974546765019248 140 12 Q 150 22.317538916271015 160 12 Q 170 18.524713370586614 180 12 Q 190 14.013607528225908 200 12 Q 210 9.28083147131083 220 12 Q 230 4.847398093003585 240 12 Q 250 1.2013668162085622 260 12 Q 270 -1.2558849684606823 280 12 Q 290 -2.2538479772006443 300 12 Q 310 -1.6826603470793575 320 12 Q 330 0.3947980991249249 340 12 Q 350 3.749828047845565 360 12 Q 370 8.013087311916362 380 12 Q 390 12.71525027424444 400 12 Q 410 17.338674118085258 420 12 Q 430 21.37438410974629 440 12 Q 450 24.378104645769255 460 12 Q 470 26.01916782471448 480 12 Q 490 26.11691538926278 500 12 Q 510 24.660586690528078 520 12 Q 530 21.81050328600608 540 12 Q 550 17.880419763381923 560 12 Q 570 13.30298371930234 580 12 Q 590 8.582107269597618 600 12 Q 610 4.237493325992887 620 12 Q 630 0.747423525567319 640 12 Q 650 -1.5038939328987997 660 12 Q 670 -2.268620273947656 680 12 Q 690 -1.4625697514894593 700 12 Q 710 0.8255226701143741 720 12" fill="none" stroke="url(#g13)" stroke-opacity="0.35" stroke-width="1.5"/><path d="M 0 43.81818181818181 Q 10 56.637672566343795 20 43.81818181818181 Q 30 63.60997336348741 40 43.81818181818181 Q 50 68.40347287151947 60 43.81818181818181 Q 70 70.4904733889182 80 43.81818181818181 Q 90 69.6412251526429 100 43.81818181818181 Q 110 65.94921859521642 120 43.81818181818181 Q 130 59.82089234693226 140 43.81818181818181 Q 150 51.93088998916066 160 43.81818181818181 Q 170 43.147791168612954 180 43.81818181818181 Q 190 34.43849304509388 200 43.81818181818181 Q 210 26.761768346951058 220 43.81818181818181 Q 230 20.962717813558218 240 43.81818181818181 Q 250 17.679736344581535 260 43.81818181818181 Q 270 17.27423459051021 280 43.81818181818181 Q 290 19.790852660981887 300 43.81818181818181 Q 310 24.95254586888001 320 43.81818181818181 Q 330 32.19108350150619 340 43.81818181818181 Q 350 40.709603127829595 360 43.81818181818181 Q 370 49.57033408162882 380 43.81818181818181 Q 390 57.79783298374261 400 43.81818181818181 Q 410 64.48636650664201 420 43.81818181818181 Q 430 68.89962003077373 440 43.81818181818181 Q 450 70.55175565482688 460 43.81818181818181 Q 470 69.26089619910128 480 43.81818181818181 Q 490 65.16914735624017 500 43.81818181818181 Q 510 58.726953828692004 520 43.81818181818181 Q 530 50.643511624832165 540 43.81818181818181 Q 550 41.80869543103814 560 43.81818181818181 Q 570 33.19509577141881 580 43.81818181818181 Q 590 25.750950302949803 600 43.81818181818181 Q 610 20.295756022954716 620 43.81818181818181 Q 630 17.430054034668206 640 43.81818181818181 Q 650 17.4693183148647 660 43.81818181818181 Q 670 20.40922641177867 680 43.81818181818181 Q 690 25.926135286993762 700 43.81818181818181 Q 710 33.41270991771961 720 43.81818181818181" fill="none" stroke="url(#g13)" stroke-opacity="0.19" stroke-width="1.5"/><path d="M 0 75.63636363636363 Q 10 83.42132229448558 20 75.63636363636363 Q 30 84.62835090268939 40 75.63636363636363 Q 50 84.84548663521807 60 75.63636363636363 Q 70 84.0488258645065 80 75.63636363636363 Q 90 82.3260698736971 100 75.63636363636363 Q 110 79.86687016376733 120 75.63636363636363 Q 130 76.9419504580301 140 75.63636363636363 Q 150 73.87330378126136 160 75.63636363636363 Q 170 70.99874550100206 180 75.63636363636363 Q 190 68.63472454873568 200 75.63636363636363 Q 210 67.04148678883955 220 75.63636363636363 Q 230 66.39442556441641 240 75.63636363636363 Q 250 66.76477332689338 260 75.63636363636363 Q 270 68.111759932726 280 75.63636363636363 Q 290 70.28710086979792 300 75.63636363636363 Q 310 73.05132132214315 320 75.63636363636363 Q 330 76.100119020249 340 75.63636363636363 Q 350 79.09786369337078 360 75.63636363636363 Q 370 81.7145452995538 380 75.63636363636363 Q 390 83.66210354654531 400 75.63636363636363 Q 410 84.72613932805666 420 75.63636363636363 Q 430 84.7895170867983 440 75.63636363636363 Q 450 83.8452598120165 460 75.63636363636363 Q 470 81.99731711144828 480 75.63636363636363 Q 490 79.449121803643 500 75.63636363636363 Q 510 76.48119479085673 520 75.63636363636363 Q 530 73.420263604887 540 75.63636363636363 Q 550 70.6032942449262 560 75.63636363636363 Q 570 68.3403959023945 580 75.63636363636363 Q 590 66.8806822471964 600 75.63636363636363 Q 610 66.38484747350827 620 75.63636363636363 Q 630 66.90747610146438 640 75.63636363636363 Q 650 68.39103397981265 660 75.63636363636363 Q 670 70.67220199666683 680 75.63636363636363 Q 690 73.49985524479331 700 75.63636363636363 Q 710 76.56270838511222 720 75.63636363636363" fill="none" stroke="url(#g13)" stroke-opacity="0.29" stroke-width="1.5"/><path d="M 0 107.45454545454545 Q 10 140.00020449805024 20 107.45454545454545 Q 30 138.96394769694965 40 107.45454545454545 Q 50 134.4589434574107 60 107.45454545454545 Q 70 126.98113015985194 80 107.45454545454545 Q 90 117.35371116184517 100 107.45454545454545 Q 110 106.63653154490599 120 107.45454545454545 Q 130 96.00940389505396 140 107.45454545454545 Q 150 86.64222732779096 160 107.45454545454545 Q 170 79.56619784845938 180 107.45454545454545 Q 190 75.56028799807791 200 107.45454545454545 Q 210 75.06549279855227 220 107.45454545454545 Q 230 78.13628232734388 240 107.45454545454545 Q 250 84.4346053186739 260 107.45454545454545 Q 270 93.26710391146452 280 107.45454545454545 Q 290 103.6614427172798 300 107.45454545454545 Q 310 114.47334943829712 320 107.45454545454545 Q 330 124.51258335034649 340 107.45454545454545 Q 350 132.67396427106826 360 107.45454545454545 Q 370 138.05903754413202 380 107.45454545454545 Q 390 140.07498141500122 400 107.45454545454545 Q 410 138.49986847025434 420 107.45454545454545 Q 430 133.50709676264754 440 107.45454545454545 Q 450 125.64630109446085 460 107.45454545454545 Q 470 115.78284586164017 480 107.45454545454545 Q 490 105.00256045599001 500 107.45454545454545 Q 510 94.49220453416174 520 107.45454545454545 Q 530 85.40882226666824 540 107.45454545454545 Q 550 78.7523678490962 560 107.45454545454545 Q 570 75.25562443716552 580 107.45454545454545 Q 590 75.30353490156918 600 107.45454545454545 Q 610 78.89082496577866 620 107.45454545454545 Q 630 85.6225838306162 640 107.45454545454545 Q 650 94.75773836689473 660 107.45454545454545 Q 670 105.29063497148726 680 107.45454545454545 Q 690 116.06174805785795 700 107.45454545454545 Q 710 125.88532771428046 720 107.45454545454545" fill="none" stroke="url(#g13)" stroke-opacity="0.40" stroke-width="1.5"/><path d="M 0 139.27272727272725 Q 10 149.4095256614409 20 139.27272727272725 Q 30 147.33364945799568 40 139.27272727272725 Q 50 144.37037770935757 60 139.27272727272725 Q 70 140.84592546741516 80 139.27272727272725 Q 90 137.1482859600972 100 139.27272727272725 Q 110 133.68451792722385 120 139.27272727272725 Q 130 130.83593410836855 140 139.27272727272725 Q 150 128.91612400766775 160 139.27272727272725 Q 170 128.1364320459982 180 139.27272727272725 Q 190 128.5826914763682 200 139.27272727272725 Q 210 130.20577533521097 220 139.27272727272725 Q 230 132.82700463857051 240 139.27272727272725 Q 250 136.15781845591448 260 139.27272727272725 Q 270 139.83154045971546 280 139.27272727272725 Q 290 143.44374489501362 300 139.27272727272725 Q 310 146.5967782365004 320 139.27272727272725 Q 330 148.94353531720205 340 139.27272727272725 Q 350 150.22567078515993 360 139.27272727272725 Q 370 150.30203933758483 380 139.27272727272725 Q 390 149.16423385781482 400 139.27272727272725 Q 410 146.9375109220626 420 139.27272727272725 Q 430 143.8670017905178 440 139.27272727272725 Q 450 140.29072686111783 460 139.27272727272725 Q 470 136.60238431972718 480 139.27272727272725 Q 490 133.2080094393766 500 139.27272727272725 Q 510 130.48127573760019 520 139.27272727272725 Q 530 128.72235871346257 540 139.27272727272725 Q 550 128.12489069533873 560 139.27272727272725 Q 570 128.75464461162238 580 139.27272727272725 Q 590 130.54229330506845 600 139.27272727272725 Q 610 133.29104148966948 620 139.27272727272725 Q 630 136.69829017764098 640 139.27272727272725 Q 650 140.38894862408077 660 139.27272727272725 Q 670 143.95672660698622 680 139.27272727272725 Q 690 147.00886133625696 700 139.27272727272725 Q 710 149.20935518037717 720 139.27272727272725" fill="none" stroke="url(#g13)" stroke-opacity="0.28" stroke-width="1.5"/><path d="M 0 171.0909090909091 Q 10 186.69555075236138 20 171.0909090909091 Q 30 179.00181291464688 40 171.0909090909091 Q 50 170.4371944691945 60 171.0909090909091 Q 70 161.94454092177787 80 171.0909090909091 Q 90 154.45877544267856 100 171.0909090909091 Q 110 148.80397681417926 120 171.0909090909091 Q 130 145.60265980525568 140 171.0909090909091 Q 150 145.20724494387923 160 171.0909090909091 Q 170 147.66126191293532 180 171.0909090909091 Q 190 152.6945575368793 200 171.0909090909091 Q 210 159.75303589322615 220 171.0909090909091 Q 230 168.05965657576655 240 171.0909090909091 Q 250 176.69997604815606 260 171.0909090909091 Q 270 184.72281517324163 280 171.0909090909091 Q 290 191.24497082168264 300 171.0909090909091 Q 310 195.54844426647753 320 171.0909090909091 Q 330 197.1594828679164 340 171.0909090909091 Q 350 195.9007336575432 360 171.0909090909091 Q 370 191.91076743608366 380 171.0909090909091 Q 390 185.6288240533981 400 171.0909090909091 Q 410 177.74645820320842 420 171.0909090909091 Q 430 169.13140885883234 440 171.0909090909091 Q 450 160.73207326739725 460 171.0909090909091 Q 470 153.47310158866293 480 171.0909090909091 Q 490 148.1536057582541 500 171.0909090909091 Q 510 145.35918836531422 520 171.0909090909091 Q 530 145.39747594300053 540 171.0909090909091 Q 550 148.2642535609249 560 171.0909090909091 Q 570 153.6439288304331 580 171.0909090909091 Q 590 160.94427424218748 600 171.0909090909091 Q 610 169.36162318734773 620 171.0909090909091 Q 630 177.9693424861618 640 171.0909090909091 Q 650 185.81984182768502 660 171.0909090909091 Q 670 192.04889029849434 680 171.0909090909091 Q 690 195.97075619981598 700 171.0909090909091 Q 710 197.15369658094426 720 171.0909090909091" fill="none" stroke="url(#g13)" stroke-opacity="0.44" stroke-width="1.5"/><path d="M 0 202.9090909090909 Q 10 205.186577513545 20 202.9090909090909 Q 30 199.8335810033453 40 202.9090909090909 Q 50 194.8191554068486 60 202.9090909090909 Q 70 190.6953193186724 80 202.9090909090909 Q 90 187.91604980119806 100 202.9090909090909 Q 110 186.7873058169379 120 202.9090909090909 Q 130 187.43334639733703 140 202.9090909090909 Q 150 189.78305144969588 160 202.9090909090909 Q 170 193.57775109133146 180 202.9090909090909 Q 190 198.39970161005576 200 202.9090909090909 Q 210 203.71807324332912 220 202.9090909090909 Q 230 208.94738716049469 240 202.9090909090909 Q 250 213.51196854819318 260 202.9090909090909 Q 270 216.90932040967692 280 202.9090909090909 Q 290 218.76544150314717 300 202.9090909090909 Q 310 218.87599868261543 320 202.9090909090909 Q 330 217.22882113855223 340 202.9090909090909 Q 350 214.00524023493162 360 202.9090909090909 Q 370 209.5601274452271 380 202.9090909090909 Q 390 204.38282793328023 400 202.9090909090909 Q 410 199.04329044905253 420 202.9090909090909 Q 430 194.12932388934163 440 202.9090909090909 Q 450 190.18188770445505 460 202.9090909090909 Q 470 187.6355397780805 480 202.9090909090909 Q 490 186.77059764144354 500 202.9090909090909 Q 510 187.68227940746732 520 202.9090909090909 Q 530 190.27022157936958 540 202.9090909090909 Q 550 194.24952767734555 560 202.9090909090909 Q 570 199.1821313830333 580 202.9090909090909 Q 590 204.52502155527222 600 202.9090909090909 Q 610 209.6900202128923 620 202.9090909090909 Q 630 214.1085327591022 640 202.9090909090909 Q 650 217.29414234732175 660 202.9090909090909 Q 670 218.89615761838175 680 202.9090909090909 Q 690 218.73821894714297 700 202.9090909090909 Q 710 216.83771318712544 720 202.9090909090909" fill="none" stroke="url(#g13)" stroke-opacity="0.25" stroke-width="1.5"/><path d="M 0 234.72727272727272 Q 10 223.0286879021759 20 234.72727272727272 Q 30 213.4540828984564 40 234.72727272727272 Q 50 206.2213605543455 60 234.72727272727272 Q 70 202.12674311839822 80 234.72727272727272 Q 90 201.6209910853095 100 234.72727272727272 Q 110 204.75978072769675 120 234.72727272727272 Q 130 211.19757491197464 140 234.72727272727272 Q 150 220.22566193634344 160 234.72727272727272 Q 170 230.85017484328807 180 234.72727272727272 Q 190 241.90150236417503 200 234.72727272727272 Q 210 252.1630468709532 220 234.72727272727272 Q 230 260.5051548732619 240 234.72727272727272 Q 250 266.00947617386254 260 234.72727272727272 Q 270 268.07006146705527 280 234.72727272727272 Q 290 266.4600689390076 300 234.72727272727272 Q 310 261.3567364000279 320 234.72727272727272 Q 330 253.32186986394976 340 234.72727272727272 Q 350 243.2399965109718 360 234.72727272727272 Q 370 232.22099053352585 380 234.72727272727272 Q 390 221.4778914067616 400 234.72727272727272 Q 410 212.19336509464017 420 234.72727272727272 Q 430 205.38950895764216 440 234.72727272727272 Q 450 201.81533303299884 460 234.72727272727272 Q 470 201.86430443531157 480 234.72727272727272 Q 490 205.53103209352727 500 234.72727272727272 Q 510 212.41186023296518 520 234.72727272727272 Q 530 221.74930526826893 540 234.72727272727272 Q 550 232.5154442227158 560 234.72727272727272 Q 570 243.5250747674005 580 234.72727272727272 Q 590 253.566189532071 600 234.72727272727272 Q 610 261.5334012786242 620 234.72727272727272 Q 630 266.5496306792852 640 234.72727272727272 Q 650 268.06266056565767 660 234.72727272727272 Q 670 265.9059273672156 680 234.72727272727272 Q 690 260.31685744641226 700 234.72727272727272 Q 710 251.91072975465065 720 234.72727272727272" fill="none" stroke="url(#g13)" stroke-opacity="0.41" stroke-width="1.5"/><path d="M 0 266.5454545454545 Q 10 246.7420684201853 20 266.5454545454545 Q 30 242.23576608815935 40 266.5454545454545 Q 50 240.40562272978724 60 266.5454545454545 Q 70 241.4531117033221 80 266.5454545454545 Q 90 245.26291902515396 100 266.5454545454545 Q 110 251.41563783739065 120 266.5454545454545 Q 130 259.2339392762476 140 266.5454545454545 Q 150 267.8571369700717 160 266.5454545454545 Q 170 276.33593665166336 180 266.5454545454545 Q 190 283.7369402689017 200 266.5454545454545 Q 210 289.24540014292984 220 266.5454545454545 Q 230 292.25491136860916 240 266.5454545454545 Q 250 292.4341685700169 260 266.5454545454545 Q 270 289.76343801963174 280 266.5454545454545 Q 290 284.53673004758133 300 266.5454545454545 Q 310 277.32943258887104 320 266.5454545454545 Q 330 268.9349689653919 340 266.5454545454545 Q 350 260.27745300091607 360 266.5454545454545 Q 370 252.30995692747086 380 266.5454545454545 Q 390 245.9095913732719 400 266.5454545454545 Q 410 241.78094766792927 420 266.5454545454545 Q 430 240.378532125684 440 266.5454545454545 Q 450 241.85673121449776 460 266.5454545454545 Q 470 246.0528157507644 480 266.5454545454545 Q 490 252.50485512168868 500 266.5454545454545 Q 510 260.5025694283242 520 266.5454545454545 Q 530 269.1655214347918 540 266.5454545454545 Q 550 277.5400404763619 560 266.5454545454545 Q 570 284.7042083506477 580 266.5454545454545 Q 590 289.86934970382003 600 266.5454545454545 Q 610 292.4668542302897 620 266.5454545454545 Q 630 292.2107727678603 640 266.5454545454545 Q 650 289.1292963279005 660 266.5454545454545 Q 670 283.56165265663935 680 266.5454545454545 Q 690 276.12076197307215 700 266.5454545454545 Q 710 267.6257629679226 720 266.5454545454545" fill="none" stroke="url(#g13)" stroke-opacity="0.37" stroke-width="1.5"/><path d="M 0 298.3636363636364 Q 10 283.79262604433865 20 298.3636363636364 Q 30 283.5665770144132 40 298.3636363636364 Q 50 284.9694786487743 60 298.3636363636364 Q 70 287.84689096747155 80 298.3636363636364 Q 90 291.88205084903944 100 298.3636363636364 Q 110 296.63074324949844 120 298.3636363636364 Q 130 301.5702031073821 140 298.3636363636364 Q 150 306.156664514423 160 298.3636363636364 Q 170 309.88522178771495 180 298.3636363636364 Q 190 312.34541257093304 200 298.3636363636364 Q 210 313.26640403736405 220 298.3636363636364 Q 230 312.5468078215471 240 298.3636363636364 Q 250 310.26584146976 260 298.3636363636364 Q 270 306.67460768871416 280 298.3636363636364 Q 290 302.1684514260225 300 298.3636363636364 Q 310 297.243437883848 320 298.3636363636364 Q 330 292.44174263179576 340 298.3636363636364 Q 350 288.29196560894377 360 298.3636363636364 Q 370 285.25093961419344 380 298.3636363636364 Q 390 283.65343936171945 400 298.3636363636364 Q 410 283.67532743584 420 298.3636363636364 Q 430 285.31419426367745 440 298.3636363636364 Q 450 288.38962337565636 460 298.3636363636364 Q 470 292.5630527523451 480 298.3636363636364 Q 490 297.3750457992781 500 298.3636363636364 Q 510 302.29586893322454 520 298.3636363636364 Q 530 306.78380789030945 540 298.3636363636364 Q 550 310.3448029406308 560 298.3636363636364 Q 570 312.586838000733 580 298.3636363636364 Q 590 313.26309615826113 600 298.3636363636364 Q 610 312.2991307850754 620 298.3636363636364 Q 630 309.80106107674976 640 298.3636363636364 Q 650 306.04388980341406 660 298.3636363636364 Q 670 301.44122932527415 680 298.3636363636364 Q 690 296.4997686179166 700 298.3636363636364 Q 710 291.7634938553388 720 298.3636363636364" fill="none" stroke="url(#g13)" stroke-opacity="0.21" stroke-width="1.5"/><path d="M 0 330.1818181818182 Q 10 309.8203736641788 20 330.1818181818182 Q 30 312.9118817347653 40 330.1818181818182 Q 50 317.9045698833442 60 330.1818181818182 Q 70 324.24881250632353 80 330.1818181818182 Q 90 331.2461966291253 100 330.1818181818182 Q 110 338.1264074718939 120 330.1818181818182 Q 130 344.1320294050605 140 330.1818181818182 Q 150 348.6019268876638 160 330.1818181818182 Q 170 351.0440263054986 180 330.1818181818182 Q 190 351.18948643984373 200 330.1818181818182 Q 210 349.02229415073145 220 330.1818181818182 Q 230 344.78102720119364 240 330.1818181818182 Q 250 338.9325901600241 260 330.1818181818182 Q 270 332.1208146952868 280 330.1818181818182 Q 290 325.09558265217674 300 330.1818181818182 Q 310 318.63027447969455 320 330.1818181818182 Q 330 313.43663078749967 340 330.1818181818182 Q 350 310.0863995927353 360 330.1818181818182 Q 370 308.9483948064243 380 330.1818181818182 Q 390 310.14789494566077 400 330.1818181818182 Q 410 313.5528517093257 420 330.1818181818182 Q 430 318.7884266615423 440 330.1818181818182 Q 450 325.2782557359744 460 330.1818181818182 Q 470 332.30789891231774 480 330.1818181818182 Q 490 339.1034901370849 500 330.1818181818182 Q 510 344.91692922506 520 330.1818181818182 Q 530 349.1082372966121 540 330.1818181818182 Q 550 351.21600956135353 560 330.1818181818182 Q 570 351.0082095754352 580 330.1818181818182 Q 590 348.5077132304187 600 330.1818181818182 Q 610 343.98979043542084 620 330.1818181818182 Q 630 337.95180172434374 640 330.1818181818182 Q 650 331.05844577073697 660 330.1818181818182 Q 670 324.06858529825246 680 330.1818181818182 Q 690 317.7517068373693 700 330.1818181818182 Q 710 312.80321094857857 720 330.1818181818182" fill="none" stroke="url(#g13)" stroke-opacity="0.55" stroke-width="1.5"/><path d="M 0 362 Q 10 354.2766105533047 20 362 Q 30 357.23999038908494 40 362 Q 50 360.72738115397715 60 362 Q 70 364.3548695737943 80 362 Q 90 367.7231195688672 100 362 Q 110 370.46133360858744 120 362 Q 130 372.2680723681749 140 362 Q 150 372.9444390105511 160 362 Q 170 372.41597496490164 180 362 Q 190 370.74085678089733 200 362 Q 210 368.1034916988008 220 362 Q 230 364.7942169742149 240 362 Q 250 361.17733777978907 260 362 Q 270 357.6510222668671 280 362 Q 290 354.6034687836268 300 362 Q 310 352.37017063004157 320 362 Q 330 351.1969829064374 340 362 Q 350 351.2130572825208 360 362 Q 370 352.4166241928003 380 362 Q 390 354.67518764116335 400 362 Q 410 357.74011116933013 420 362 Q 430 361.2739892766966 440 362 Q 450 364.8877910785008 460 362 Q 470 368.1836872015735 480 362 Q 490 370.79884527142804 500 362 Q 510 372.4453727159955 520 362 Q 530 372.9420097382247 540 362 Q 550 372.23408350156245 560 362 Q 570 370.39952684970825 580 362 Q 590 367.6402989832155 600 362 Q 610 364.26015255725457 620 362 Q 630 360.6311947342019 640 362 Q 650 357.1529233546093 660 362 Q 670 354.20824777503435 680 362 Q 690 352.12133586750144 700 362 Q 710 351.12192764033614 720 362" fill="none" stroke="url(#g13)" stroke-opacity="0.21" stroke-width="1.5"/><path d="M 0 393.8181818181818 Q 10 387.6701239630812 20 393.8181818181818 Q 30 394.9211405260749 40 393.8181818181818 Q 50 402.0507366583263 60 393.8181818181818 Q 70 408.27404287451174 80 393.8181818181818 Q 90 412.90595961831673 100 393.8181818181818 Q 110 415.4365772057513 120 393.8181818181818 Q 130 415.58730979737146 140 393.8181818181818 Q 150 413.34156382891183 160 393.8181818181818 Q 170 408.9465647321832 180 393.8181818181818 Q 190 402.88614084964144 200 393.8181818181818 Q 210 395.8274606555309 220 393.8181818181818 Q 230 388.5475867755946 240 393.8181818181818 Q 250 381.8479321874231 260 393.8181818181818 Q 270 376.4660357853553 280 393.8181818181818 Q 290 372.9943695945663 300 393.8181818181818 Q 310 371.8151158320898 320 393.8181818181818 Q 330 373.05809395423904 340 393.8181818181818 Q 350 376.58646933799974 360 393.8181818181818 Q 370 382.01181687203183 380 393.8181818181818 Q 390 388.7368811651814 400 393.8181818181818 Q 410 396.02132606759903 420 393.8181818181818 Q 430 403.0632353956226 440 393.8181818181818 Q 450 409.0873927628738 460 393.8181818181818 Q 470 413.4306221346044 480 393.8181818181818 Q 490 415.6147942958633 500 393.8181818181818 Q 510 415.3994622355904 520 393.8181818181818 Q 530 412.80833102209334 540 393.8181818181818 Q 550 408.12664820435214 560 393.8181818181818 Q 570 401.86980201971545 580 393.8181818181818 Q 590 394.7265843090661 600 393.8181818181818 Q 610 387.4833641042696 620 393.8181818181818 Q 630 380.9375193224995 640 393.8181818181818 Q 650 375.80965653523253 660 393.8181818181818 Q 670 372.6642821958492 680 393.8181818181818 Q 690 371.84765832159525 700 393.8181818181818 Q 710 373.4496838559732 720 393.8181818181818" fill="none" stroke="url(#g13)" stroke-opacity="0.12" stroke-width="1.5"/><path d="M 0 425.6363636363636 Q 10 431.69093443115565 20 425.6363636363636 Q 30 440.3509928380711 40 425.6363636363636 Q 50 447.3911749947699 60 425.6363636363636 Q 70 452.0364546524417 80 425.6363636363636 Q 90 453.7754510559259 100 425.6363636363636 Q 110 452.41672486043154 120 425.6363636363636 Q 130 448.10985294380305 140 425.6363636363636 Q 150 441.3289620702854 160 425.6363636363636 Q 170 432.8205341206486 180 425.6363636363636 Q 190 423.52122880771054 200 425.6363636363636 Q 210 414.4547704546228 220 425.6363636363636 Q 230 406.6192501691137 240 425.6363636363636 Q 250 400.8772498786377 260 425.6363636363636 Q 270 397.8608840436938 280 425.6363636363636 Q 290 397.9022126374563 300 425.6363636363636 Q 310 400.99668595591487 320 425.6363636363636 Q 330 406.8036454770785 340 425.6363636363636 Q 350 414.68382563160395 360 425.6363636363636 Q 370 423.7697280609012 380 425.6363636363636 Q 390 433.0611211345804 400 425.6363636363636 Q 410 441.5351515571108 420 425.6363636363636 Q 430 448.25894630553665 440 425.6363636363636 Q 450 452.4923089892453 460 425.6363636363636 Q 470 453.7692051892997 480 425.6363636363636 Q 490 451.94906637351966 500 425.6363636363636 Q 510 447.2322645390083 520 425.6363636363636 Q 530 440.13805403896527 540 425.6363636363636 Q 550 431.44740889220725 560 425.6363636363636 Q 570 422.1170483934795 580 425.6363636363636 Q 590 413.17411561045054 600 425.6363636363636 Q 610 405.6031032016804 620 425.6363636363636 Q 630 400.23747445210455 640 425.6363636363636 Q 650 397.667910544359 660 425.6363636363636 Q 670 398.1772847666874 680 425.6363636363636 Q 690 401.70952209375866 700 425.6363636363636 Q 710 407.8757722679267 720 425.6363636363636" fill="none" stroke="url(#g13)" stroke-opacity="0.41" stroke-width="1.5"/><path d="M 0 457.45454545454544 Q 10 479.4706878687936 20 457.45454545454544 Q 30 486.5250541417661 40 457.45454545454544 Q 50 490.3791612740814 60 457.45454545454544 Q 70 490.6087256141541 80 457.45454545454544 Q 90 487.1884753173943 100 457.45454545454544 Q 110 480.4949324252053 120 457.45454545454544 Q 130 471.26496301910583 140 457.45454545454544 Q 150 460.5146585021623 160 457.45454545454544 Q 170 449.427478051693 180 457.45454545454544 Q 190 439.2239662052045 200 457.45454545454544 Q 210 431.02738786338574 220 457.45454545454544 Q 230 425.74007242964524 240 457.45454545454544 Q 250 423.9440798785235 260 457.45454545454544 Q 270 425.83712403884 280 457.45454545454544 Q 290 431.2108070479049 300 457.45454545454544 Q 310 439.4735610610073 320 457.45454545454544 Q 330 449.7157716526844 340 457.45454545454544 Q 350 460.80991372802936 360 457.45454545454544 Q 370 471.53467637135196 380 457.45454545454544 Q 390 480.70941221077595 400 457.45454545454544 Q 410 487.3241102915863 420 457.45454545454544 Q 430 490.6505842506353 440 457.45454545454544 Q 450 490.3226355185019 460 457.45454545454544 Q 470 486.37636669452365 480 457.45454545454544 Q 490 479.2462071521701 500 457.45454545454544 Q 510 469.7170884003896 520 457.45454545454544 Q 530 458.83803402923735 540 457.45454545454544 Q 550 447.8066767863056 560 457.45454545454544 Q 570 437.83741584948245 580 457.45454545454544 Q 590 430.0277283486637 600 457.45454545454544 Q 610 425.23735238059487 620 457.45454545454544 Q 630 423.99364178844183 640 457.45454545454544 Q 650 426.4335118299903 660 457.45454545454544 Q 670 432.2883667098762 680 457.45454545454544 Q 690 440.9136682451535 700 457.45454545454544 Q 710 451.3598905649067 720 457.45454545454544" fill="none" stroke="url(#g13)" stroke-opacity="0.20" stroke-width="1.5"/><path d="M 0 489.27272727272725 Q 10 520.7244275495921 20 489.27272727272725 Q 30 522.796177742863 40 489.27272727272725 Q 50 521.1774617682481 60 489.27272727272725 Q 70 516.0464777663312 80 489.27272727272725 Q 90 507.96807579286383 100 489.27272727272725 Q 110 497.83157567487933 120 489.27272727272725 Q 130 486.7528652527274 140 489.27272727272725 Q 150 475.9515566314681 160 489.27272727272725 Q 170 466.61672383172356 180 489.27272727272725 Q 190 459.7760022593723 200 489.27272727272725 Q 210 456.1824603239201 220 489.27272727272725 Q 230 456.2316970687136 240 489.27272727272725 Q 250 459.91829221217887 260 489.27272727272725 Q 270 466.8364028455208 280 489.27272727272725 Q 290 476.2244410987561 300 489.27272727272725 Q 310 487.0489143847405 320 489.27272727272725 Q 330 498.1181985750838 340 489.27272727272725 Q 350 508.2137192618929 360 489.27272727272725 Q 370 516.2240998708786 380 489.27272727272725 Q 390 521.2675087822411 400 489.27272727272725 Q 410 522.7887367410508 420 489.27272727272725 Q 430 520.6203176828991 440 489.27272727272725 Q 450 515.000964421046 460 489.27272727272725 Q 470 506.5492896820288 480 489.27272727272725 Q 490 496.1957054386276 500 489.27272727272725 Q 510 485.0799974775313 520 489.27272727272725 Q 530 474.4258508188446 540 489.27272727272725 Q 550 465.4061389955769 560 489.27272727272725 Q 570 459.0138069719557 580 489.27272727272725 Q 590 455.9525616974813 600 489.27272727272725 Q 610 456.5594037481272 620 489.27272727272725 Q 630 460.76752824474886 640 489.27272727272725 Q 650 468.1136791421828 660 489.27272727272725 Q 670 477.7891472839739 680 489.27272727272725 Q 690 488.7287980454048 700 489.27272727272725 Q 710 499.7283278581569 720 489.27272727272725" fill="none" stroke="url(#g13)" stroke-opacity="0.14" stroke-width="1.5"/><path d="M 0 521.090909090909 Q 10 551.9998477700725 20 521.090909090909 Q 30 548.8112209911563 40 521.090909090909 Q 50 542.5709729800452 60 521.090909090909 Q 70 533.9660683493088 80 521.090909090909 Q 90 523.9437875540395 100 521.090909090909 Q 110 513.6074444739631 120 521.090909090909 Q 130 504.0949268832114 140 521.090909090909 Q 150 496.45343081464364 160 521.090909090909 Q 170 491.5241788249359 180 521.090909090909 Q 190 489.8498130778834 200 521.090909090909 Q 210 491.6146579808937 220 521.090909090909 Q 230 496.62442862848167 240 521.090909090909 Q 250 504.3276188712353 260 521.090909090909 Q 270 513.8762144809951 280 521.090909090909 Q 290 524.2190477362276 300 521.090909090909 Q 310 534.2175163846815 320 521.090909090909 Q 330 542.7709279331825 340 521.090909090909 Q 350 548.9376705996181 360 521.090909090909 Q 370 552.0388716886844 380 521.090909090909 Q 390 551.733132044313 400 521.090909090909 Q 410 548.0541093538218 420 521.090909090909 Q 430 541.4068129041344 440 521.090909090909 Q 450 532.5230176859352 460 521.090909090909 Q 470 522.3807061334724 480 521.090909090909 Q 490 512.0964058452957 500 521.090909090909 Q 510 502.8022754071602 520 521.090909090909 Q 530 495.52146946039403 540 521.090909090909 Q 550 491.0555035901969 560 521.090909090909 Q 570 489.8960185948684 580 521.090909090909 Q 590 492.1706576640988 600 521.090909090909 Q 610 497.62901463708357 620 521.090909090909 Q 630 505.6702002420281 640 521.090909090909 Q 650 515.4089916570402 660 521.090909090909 Q 670 525.7732832447475 680 521.090909090909 Q 690 535.6221104886065 700 521.090909090909 Q 710 543.8712543351758 720 521.090909090909" fill="none" stroke="url(#g13)" stroke-opacity="0.25" stroke-width="1.5"/><path d="M 0 552.9090909090909 Q 10 562.5579208680577 20 552.9090909090909 Q 30 559.6465944552419 40 552.9090909090909 Q 50 555.9935625036353 60 552.9090909090909 Q 70 552.0009730808903 80 552.9090909090909 Q 90 548.1083548148856 100 552.9090909090909 Q 110 544.7442308980052 120 552.9090909090909 Q 130 542.2789446369706 140 552.9090909090909 Q 150 540.9838897998128 160 552.9090909090909 Q 170 541.0016339323862 180 552.9090909090909 Q 190 542.330223652207 200 552.9090909090909 Q 210 544.8233996887277 220 552.9090909090909 Q 230 548.2066979970981 240 552.9090909090909 Q 250 552.1076644364766 260 552.9090909090909 Q 270 556.0968567965689 280 552.9090909090909 Q 290 559.7351204189002 300 552.9090909090909 Q 310 562.6219330237002 320 552.9090909090909 Q 330 564.4394966485985 340 552.9090909090909 Q 350 564.9877227892315 360 552.9090909090909 Q 370 564.2062593638184 380 552.9090909090909 Q 390 562.1811346389152 400 552.9090909090909 Q 410 559.1352867124264 420 552.9090909090909 Q 430 555.4040211262217 440 552.9090909090909 Q 450 551.398098384252 460 552.9090909090909 Q 470 547.5585149276077 480 552.9090909090909 Q 490 544.3079555529551 500 552.9090909090909 Q 510 542.0042616886266 520 552.9090909090909 Q 530 540.9010380247192 540 552.9090909090909 Q 550 541.1197341599518 560 552.9090909090909 Q 570 542.6362746880995 580 552.9090909090909 Q 590 545.283709565749 600 552.9090909090909 Q 610 548.7705929927027 620 552.9090909090909 Q 630 552.7130675456327 640 552.9090909090909 Q 650 556.6771215475995 660 552.9090909090909 Q 670 560.22636772412 680 552.9090909090909 Q 690 562.9700833795213 700 552.9090909090909 Q 710 564.6062235375688 720 552.9090909090909" fill="none" stroke="url(#g13)" stroke-opacity="0.43" stroke-width="1.5"/><path d="M 0 584.7272727272727 Q 10 596.0070747413093 20 584.7272727272727 Q 30 587.2266518486011 40 584.7272727272727 Q 50 578.1710820375827 60 584.7272727272727 Q 70 569.8372577387711 80 584.7272727272727 Q 90 563.1426172287324 100 584.7272727272727 Q 110 558.8241474214618 120 584.7272727272727 Q 130 557.3572518478389 140 584.7272727272727 Q 150 558.9034153314828 160 584.7272727272727 Q 170 563.2924267531208 180 584.7272727272727 Q 190 570.04111693014 200 584.7272727272727 Q 210 578.4065488311026 220 584.7272727272727 Q 230 587.4678046215582 240 584.7272727272727 Q 250 596.2273659236474 260 584.7272727272727 Q 270 603.7209267313493 280 584.7272727272727 Q 290 609.1235501049999 300 584.7272727272727 Q 310 611.840482267805 320 584.7272727272727 Q 330 611.5726267339714 340 584.7272727272727 Q 350 608.3494706765567 360 584.7272727272727 Q 370 602.5258387993694 380 584.7272727272727 Q 390 594.7428320665277 400 584.7272727272727 Q 410 585.8572513928891 420 584.7272727272727 Q 430 576.847275766541 440 584.7272727272727 Q 450 568.7047783316914 460 584.7272727272727 Q 470 562.3261349352174 480 584.7272727272727 Q 490 558.4135455989415 500 584.7272727272727 Q 510 557.3977320526338 520 584.7272727272727 Q 530 559.3905212554215 540 584.7272727272727 Q 550 564.1725348011597 560 584.7272727272727 Q 570 571.217339433205 580 584.7272727272727 Q 590 579.7494000324298 600 584.7272727272727 Q 610 588.8294552596157 620 584.7272727272727 Q 630 597.4579171800926 640 584.7272727272727 Q 650 604.6849120084405 660 584.7272727272727 Q 670 609.7148480160195 680 584.7272727272727 Q 690 611.9939991274325 700 584.7272727272727 Q 710 611.2714624687147 720 584.7272727272727" fill="none" stroke="url(#g13)" stroke-opacity="0.55" stroke-width="1.5"/><path d="M 0 616.5454545454545 Q 10 614.6616700377459 20 616.5454545454545 Q 30 606.5868874971886 40 616.5454545454545 Q 50 599.6084048379633 60 616.5454545454545 Q 70 594.4944560513768 80 616.5454545454545 Q 90 591.8080158526367 100 616.5454545454545 Q 110 591.8448239859058 120 616.5454545454545 Q 130 594.6008283870731 140 616.5454545454545 Q 150 599.772631259718 160 616.5454545454545 Q 170 606.7908889575033 180 616.5454545454545 Q 190 614.8829888099566 200 616.5454545454545 Q 210 623.1581030438678 220 616.5454545454545 Q 230 630.705256545179 240 616.5454545454545 Q 250 636.6936125632034 260 616.5454545454545 Q 270 640.4639362943675 280 616.5454545454545 Q 290 641.6011674755807 300 616.5454545454545 Q 310 639.9801127529231 320 616.5454545454545 Q 330 635.7792277306465 340 616.5454545454545 Q 350 629.4609714883646 360 616.5454545454545 Q 370 621.7208962611597 380 616.5454545454545 Q 390 613.4110768015497 400 616.5454545454545 Q 410 605.446308786795 420 616.5454545454545 Q 430 598.7034025237492 440 616.5454545454545 Q 450 593.9246583152753 460 616.5454545454545 Q 470 591.6361495094037 480 616.5454545454545 Q 490 592.0898091322559 500 616.5454545454545 Q 510 595.235695561881 520 616.5454545454545 Q 530 600.7274904070118 540 616.5454545454545 Q 550 607.9606233506703 560 616.5454545454545 Q 570 616.1388269429956 580 616.5454545454545 Q 590 624.361794585225 600 616.5454545454545 Q 610 631.7242917785917 620 616.5454545454545 Q 630 637.4158098665515 640 616.5454545454545 Q 650 640.8097917777721 660 616.5454545454545 Q 670 641.5326072551611 680 616.5454545454545 Q 690 639.5046843564658 700 616.5454545454545 Q 710 634.9492692196508 720 616.5454545454545" fill="none" stroke="url(#g13)" stroke-opacity="0.35" stroke-width="1.5"/><path d="M 0 648.3636363636364 Q 10 633.4349248484785 20 648.3636363636364 Q 30 626.7228861467556 40 648.3636363636364 Q 50 622.393193396987 60 648.3636363636364 Q 70 620.922485620105 80 648.3636363636364 Q 90 622.4726673103462 100 648.3636363636364 Q 110 626.8730849997148 120 648.3636363636364 Q 130 633.6393138339838 140 648.3636363636364 Q 150 642.0264860192104 160 648.3636363636364 Q 170 651.1112904176766 180 648.3636363636364 Q 190 659.8936162769328 200 648.3636363636364 Q 210 667.4066515294737 220 648.3636363636364 Q 230 672.8233153698097 240 648.3636363636364 Q 250 675.5473083608236 260 648.3636363636364 Q 270 675.27875671763 280 648.3636363636364 Q 290 672.0472242452561 300 648.3636363636364 Q 310 666.208457774427 320 648.3636363636364 Q 330 658.4052243777616 340 648.3636363636364 Q 350 649.4965516448027 360 648.3636363636364 Q 370 640.4631606785597 380 648.3636363636364 Q 390 632.2995023268621 400 648.3636363636364 Q 410 625.9042819595514 420 648.3636363636364 Q 430 621.9815244926416 440 648.3636363636364 Q 450 620.9630710258232 460 648.3636363636364 Q 470 622.9610391367964 480 648.3636363636364 Q 490 627.7554802935737 500 648.3636363636364 Q 510 634.8185931321884 520 648.3636363636364 Q 530 643.3728270543188 540 648.3636363636364 Q 550 652.4764797459404 560 648.3636363636364 Q 570 661.1273655193796 580 648.3636363636364 Q 590 668.3731420345314 600 648.3636363636364 Q 610 673.4161499599659 620 648.3636363636364 Q 630 675.7012241837333 640 648.3636363636364 Q 650 674.9768097794864 660 648.3636363636364 Q 670 671.3226547091118 680 648.3636363636364 Q 690 665.1410306800354 700 648.3636363636364 Q 710 657.1124486188462 720 648.3636363636364" fill="none" stroke="url(#g13)" stroke-opacity="0.45" stroke-width="1.5"/><path d="M 0 680.1818181818181 Q 10 653.2461514588741 20 680.1818181818181 Q 30 649.9646194283033 40 680.1818181818181 Q 50 650.0095811841484 60 680.1818181818181 Q 70 653.3760870617278 80 680.1818181818181 Q 90 659.693531533539 100 680.1818181818181 Q 110 668.2664517291506 120 680.1818181818181 Q 130 678.1510882354298 140 680.1818181818181 Q 150 688.2592798966277 160 680.1818181818181 Q 170 697.4782552402077 180 680.1818181818181 Q 190 704.7931331566504 200 680.1818181818181 Q 210 709.3986472102438 220 680.1818181818181 Q 230 710.7877942863877 240 680.1818181818181 Q 250 708.8076485909043 260 680.1818181818181 Q 270 703.6761966554357 280 680.1818181818181 Q 290 695.9583400487168 300 680.1818181818181 Q 310 686.503707561825 320 680.1818181818181 Q 330 676.3531228818612 340 680.1818181818181 Q 350 666.6240243637775 360 680.1818181818181 Q 370 658.3874505916541 380 680.1818181818181 Q 390 652.5501339101342 400 680.1818181818181 Q 410 649.7546817901751 420 680.1818181818181 Q 430 650.3088346740043 440 680.1818181818181 Q 450 654.1515880277525 460 680.1818181818181 Q 470 660.8599080931207 480 680.1818181818181 Q 490 669.6953020271168 500 680.1818181818181 Q 510 679.685115704462 520 680.1818181818181 Q 530 689.7296094240609 540 680.1818181818181 Q 550 698.7230239718147 560 680.1818181818181 Q 570 705.675309348192 580 680.1818181818181 Q 590 709.8211155187784 600 680.1818181818181 Q 610 710.7040468203412 620 680.1818181818181 Q 630 708.2269047828158 640 680.1818181818181 Q 650 702.6623883305174 660 680.1818181818181 Q 670 694.6230734190788 680 680.1818181818181 Q 690 684.9939769330258 700 680.1818181818181 Q 710 674.8351286220034 720 680.1818181818181" fill="none" stroke="url(#g13)" stroke-opacity="0.15" stroke-width="1.5"/>
</svg>